<svg width="572" height="120" viewBox="0 0 572 120" fill="none" xmlns="http://www.w3.org/2000/svg">
<g opacity="0.3">
<g opacity="0.5" filter="url(#filter0_f_6339_191104)">
<path d="M155.11 34.8099H168.475L183.443 76.8139L198.412 34.8099H211.777V89.0332H201.849V51.6115L188.178 88.9568H178.708L165.038 51.6115V89.0332H155.11V34.8099ZM231.43 89.9497C227.103 89.9497 223.641 88.9823 221.044 87.0476C218.498 85.0619 217.225 82.3126 217.225 78.7995C217.225 75.3374 218.295 72.6135 220.433 70.6278C222.622 68.5913 225.983 67.1402 230.514 66.2747L244.032 63.6017C244.032 60.7505 243.37 58.5867 242.046 57.1102C240.722 55.6337 238.787 54.8954 236.242 54.8954C231.609 54.8954 228.834 57.0084 227.917 61.2342L217.913 60.776C218.727 56.4992 220.713 53.1898 223.87 50.8478C227.026 48.5057 231.15 47.3347 236.242 47.3347C241.995 47.3347 246.348 48.8112 249.301 51.7642C252.305 54.6663 253.807 58.8413 253.807 64.289V79.105C253.807 80.1742 253.985 80.9124 254.342 81.3197C254.698 81.7271 255.284 81.9307 256.098 81.9307H257.397V89.0332C256.582 89.2369 255.411 89.3387 253.883 89.3387C251.49 89.3387 249.556 88.8295 248.079 87.8113C246.654 86.793 245.737 85.0874 245.33 82.6944C244.312 84.8837 242.555 86.6402 240.06 87.964C237.616 89.2878 234.74 89.9497 231.43 89.9497ZM233.416 82.8472C236.624 82.8472 239.195 81.9053 241.13 80.0214C243.064 78.1376 244.032 75.6428 244.032 72.5371V70.246L233.492 72.3844C231.354 72.7917 229.801 73.4535 228.834 74.37C227.866 75.2864 227.383 76.4575 227.383 77.8831C227.383 79.4614 227.892 80.6833 228.91 81.5489C229.979 82.4144 231.481 82.8472 233.416 82.8472ZM278.539 89.9497C274.517 89.9497 270.979 89.0841 267.924 87.353C264.92 85.5711 262.578 83.0763 260.898 79.8687C259.268 76.6611 258.454 72.919 258.454 68.6422C258.454 64.4163 259.268 60.6996 260.898 57.492C262.578 54.2335 264.92 51.7388 267.924 50.0077C270.979 48.2257 274.517 47.3347 278.539 47.3347C283.783 47.3347 288.111 48.7094 291.522 51.4587C294.934 54.1572 296.945 57.8993 297.556 62.6853L287.475 63.2199C287.118 60.6742 286.125 58.714 284.496 57.3393C282.918 55.9646 280.932 55.2773 278.539 55.2773C275.383 55.2773 272.939 56.4483 271.208 58.7903C269.477 61.1324 268.611 64.4163 268.611 68.6422C268.611 72.868 269.477 76.152 271.208 78.494C272.939 80.8361 275.383 82.0071 278.539 82.0071C280.983 82.0071 282.994 81.2943 284.573 79.8687C286.151 78.4431 287.118 76.3302 287.475 73.5299L297.556 73.9881C296.996 78.8759 294.984 82.7708 291.522 85.6729C288.111 88.5241 283.783 89.9497 278.539 89.9497ZM300.927 48.2512H310.092L310.321 56.1174C311.136 53.4189 312.332 51.4333 313.91 50.1604C315.54 48.8876 317.602 48.2512 320.096 48.2512H323.839V56.652H320.02C316.863 56.652 314.521 57.3648 312.994 58.7903C311.466 60.165 310.703 62.4052 310.703 65.511V89.0332H300.927V48.2512ZM343.842 89.9497C339.82 89.9497 336.282 89.0841 333.227 87.353C330.223 85.5711 327.881 83.0763 326.201 79.8687C324.571 76.6611 323.757 72.919 323.757 68.6422C323.757 64.3654 324.571 60.6232 326.201 57.4157C327.881 54.2081 330.223 51.7388 333.227 50.0077C336.282 48.2257 339.82 47.3347 343.842 47.3347C347.814 47.3347 351.301 48.2257 354.305 50.0077C357.36 51.7388 359.702 54.2081 361.331 57.4157C363.011 60.6232 363.852 64.3654 363.852 68.6422C363.852 72.919 363.011 76.6611 361.331 79.8687C359.702 83.0763 357.36 85.5711 354.305 87.353C351.301 89.0841 347.814 89.9497 343.842 89.9497ZM343.842 82.0071C346.999 82.0071 349.443 80.8361 351.174 78.494C352.905 76.152 353.771 72.868 353.771 68.6422C353.771 64.4163 352.88 61.1324 351.098 58.7903C349.366 56.4483 346.948 55.2773 343.842 55.2773C340.686 55.2773 338.242 56.4483 336.511 58.7903C334.78 61.1324 333.914 64.4163 333.914 68.6422C333.914 72.868 334.78 76.152 336.511 78.494C338.242 80.8361 340.686 82.0071 343.842 82.0071ZM384.822 89.9497C378.967 89.9497 374.41 88.7023 371.151 86.2075C367.893 83.7127 366.111 80.3778 365.806 76.2029L375.81 75.7447C376.167 77.934 377.057 79.6141 378.483 80.7852C379.96 81.9053 382.073 82.4653 384.822 82.4653C389.71 82.4653 392.153 80.9379 392.153 77.8831C392.153 76.9157 391.924 76.1265 391.466 75.5156C391.008 74.9046 390.142 74.37 388.87 73.9118C387.597 73.4535 385.713 73.0208 383.218 72.6135C379.043 71.9007 375.759 71.0351 373.366 70.0169C371.024 68.9477 369.344 67.6494 368.326 66.1219C367.307 64.5436 366.798 62.558 366.798 60.165C366.798 56.2956 368.3 53.1898 371.304 50.8478C374.308 48.5057 378.559 47.3347 384.058 47.3347C389.353 47.3347 393.477 48.5821 396.43 51.0769C399.434 53.5717 401.242 56.9065 401.853 61.0815L391.924 61.5397C391.568 59.4522 390.702 57.823 389.328 56.652C387.953 55.43 386.171 54.8191 383.982 54.8191C381.691 54.8191 379.934 55.2773 378.712 56.1937C377.541 57.1102 376.956 58.3321 376.956 59.8595C376.956 61.4888 377.567 62.7107 378.789 63.5253C380.011 64.289 382.174 64.9255 385.28 65.4346C389.557 66.0965 392.917 66.962 395.361 68.0312C397.856 69.0495 399.638 70.3478 400.707 71.9261C401.776 73.4535 402.311 75.3883 402.311 77.7303C402.311 81.5998 400.707 84.6037 397.499 86.7421C394.343 88.8805 390.117 89.9497 384.822 89.9497ZM424.285 89.9497C420.263 89.9497 416.725 89.0841 413.67 87.353C410.666 85.5711 408.324 83.0763 406.644 79.8687C405.014 76.6611 404.2 72.919 404.2 68.6422C404.2 64.4163 405.014 60.6996 406.644 57.492C408.324 54.2335 410.666 51.7388 413.67 50.0077C416.725 48.2257 420.263 47.3347 424.285 47.3347C429.529 47.3347 433.857 48.7094 437.268 51.4587C440.68 54.1572 442.691 57.8993 443.302 62.6853L433.221 63.2199C432.864 60.6742 431.871 58.714 430.242 57.3393C428.664 55.9646 426.678 55.2773 424.285 55.2773C421.129 55.2773 418.685 56.4483 416.954 58.7903C415.223 61.1324 414.357 64.4163 414.357 68.6422C414.357 72.868 415.223 76.152 416.954 78.494C418.685 80.8361 421.129 82.0071 424.285 82.0071C426.729 82.0071 428.74 81.2943 430.319 79.8687C431.897 78.4431 432.864 76.3302 433.221 73.5299L443.302 73.9881C442.742 78.8759 440.731 82.7708 437.268 85.6729C433.857 88.5241 429.529 89.9497 424.285 89.9497ZM464.619 89.9497C460.596 89.9497 457.058 89.0841 454.003 87.353C450.999 85.5711 448.657 83.0763 446.977 79.8687C445.348 76.6611 444.533 72.919 444.533 68.6422C444.533 64.3654 445.348 60.6232 446.977 57.4157C448.657 54.2081 450.999 51.7388 454.003 50.0077C457.058 48.2257 460.596 47.3347 464.619 47.3347C468.59 47.3347 472.078 48.2257 475.081 50.0077C478.136 51.7388 480.478 54.2081 482.108 57.4157C483.788 60.6232 484.628 64.3654 484.628 68.6422C484.628 72.919 483.788 76.6611 482.108 79.8687C480.478 83.0763 478.136 85.5711 475.081 87.353C472.078 89.0841 468.59 89.9497 464.619 89.9497ZM464.619 82.0071C467.775 82.0071 470.219 80.8361 471.95 78.494C473.681 76.152 474.547 72.868 474.547 68.6422C474.547 64.4163 473.656 61.1324 471.874 58.7903C470.143 56.4483 467.724 55.2773 464.619 55.2773C461.462 55.2773 459.018 56.4483 457.287 58.7903C455.556 61.1324 454.69 64.4163 454.69 68.6422C454.69 72.868 455.556 76.152 457.287 78.494C459.018 80.8361 461.462 82.0071 464.619 82.0071ZM488.722 48.2512H498.116L498.268 54.2845C499.439 52.0443 501.094 50.3386 503.232 49.1676C505.371 47.9457 507.789 47.3347 510.488 47.3347C514.204 47.3347 517.361 48.2766 519.958 50.1604C522.605 52.0442 524.565 54.5899 525.838 57.7975C527.162 61.0051 527.824 64.62 527.824 68.6422C527.824 72.6644 527.162 76.2793 525.838 79.4868C524.515 82.6944 522.554 85.2401 519.958 87.1239C517.361 89.0077 514.179 89.9497 510.411 89.9497C507.815 89.9497 505.447 89.3641 503.309 88.1931C501.221 87.0221 499.618 85.4438 498.497 83.4581V100.489H488.722V48.2512ZM508.12 82.0071C511.124 82.0071 513.466 80.8361 515.146 78.494C516.827 76.1011 517.667 72.8171 517.667 68.6422C517.667 64.4672 516.827 61.2088 515.146 58.8667C513.466 56.4738 511.124 55.2773 508.12 55.2773C505.065 55.2773 502.698 56.4228 501.018 58.714C499.338 60.9542 498.497 64.2636 498.497 68.6422C498.497 73.0208 499.338 76.3556 501.018 78.6468C502.698 80.887 505.065 82.0071 508.12 82.0071ZM549.758 89.9497C545.736 89.9497 542.198 89.0841 539.143 87.353C536.139 85.5711 533.822 83.0763 532.193 79.8687C530.564 76.6611 529.749 72.919 529.749 68.6422C529.749 64.4163 530.564 60.6996 532.193 57.492C533.822 54.2335 536.114 51.7388 539.067 50.0077C542.07 48.2257 545.558 47.3347 549.529 47.3347C553.399 47.3347 556.785 48.2003 559.687 49.9313C562.64 51.6624 564.905 54.1826 566.484 57.492C568.113 60.7505 568.928 64.6454 568.928 69.1768V71.3915H539.907C540.11 74.9046 541.078 77.5776 542.809 79.4105C544.54 81.2434 546.882 82.1598 549.835 82.1598C551.973 82.1598 553.781 81.6761 555.257 80.7088C556.734 79.6905 557.752 78.2904 558.312 76.5084L568.317 77.1193C567.196 81.0906 564.982 84.2218 561.672 86.513C558.414 88.8041 554.443 89.9497 549.758 89.9497ZM558.77 64.8236C558.567 61.5652 557.65 59.1213 556.021 57.492C554.392 55.8628 552.228 55.0482 549.529 55.0482C546.882 55.0482 544.693 55.8882 542.961 57.5684C541.281 59.2486 540.263 61.667 539.907 64.8236H558.77Z" fill="#F63D68"/>
</g>
<g opacity="0.2" filter="url(#filter1_f_6339_191104)">
<path d="M153.11 34.8099H166.475L181.443 76.8139L196.412 34.8099H209.777V89.0332H199.849V51.6115L186.178 88.9568H176.708L163.038 51.6115V89.0332H153.11V34.8099ZM229.43 89.9497C225.103 89.9497 221.641 88.9823 219.044 87.0476C216.498 85.0619 215.225 82.3126 215.225 78.7995C215.225 75.3374 216.295 72.6135 218.433 70.6278C220.622 68.5913 223.983 67.1402 228.514 66.2747L242.032 63.6017C242.032 60.7505 241.37 58.5867 240.046 57.1102C238.722 55.6337 236.787 54.8954 234.242 54.8954C229.609 54.8954 226.834 57.0084 225.917 61.2342L215.913 60.776C216.727 56.4992 218.713 53.1898 221.87 50.8478C225.026 48.5057 229.15 47.3347 234.242 47.3347C239.995 47.3347 244.348 48.8112 247.301 51.7642C250.305 54.6663 251.807 58.8413 251.807 64.289V79.105C251.807 80.1742 251.985 80.9124 252.342 81.3197C252.698 81.7271 253.284 81.9307 254.098 81.9307H255.397V89.0332C254.582 89.2369 253.411 89.3387 251.883 89.3387C249.49 89.3387 247.556 88.8295 246.079 87.8113C244.654 86.793 243.737 85.0874 243.33 82.6944C242.312 84.8837 240.555 86.6402 238.06 87.964C235.616 89.2878 232.74 89.9497 229.43 89.9497ZM231.416 82.8472C234.624 82.8472 237.195 81.9053 239.13 80.0214C241.064 78.1376 242.032 75.6428 242.032 72.5371V70.246L231.492 72.3844C229.354 72.7917 227.801 73.4535 226.834 74.37C225.866 75.2864 225.383 76.4575 225.383 77.8831C225.383 79.4614 225.892 80.6833 226.91 81.5489C227.979 82.4144 229.481 82.8472 231.416 82.8472ZM276.539 89.9497C272.517 89.9497 268.979 89.0841 265.924 87.353C262.92 85.5711 260.578 83.0763 258.898 79.8687C257.268 76.6611 256.454 72.919 256.454 68.6422C256.454 64.4163 257.268 60.6996 258.898 57.492C260.578 54.2335 262.92 51.7388 265.924 50.0077C268.979 48.2257 272.517 47.3347 276.539 47.3347C281.783 47.3347 286.111 48.7094 289.522 51.4587C292.934 54.1572 294.945 57.8993 295.556 62.6853L285.475 63.2199C285.118 60.6742 284.125 58.714 282.496 57.3393C280.918 55.9646 278.932 55.2773 276.539 55.2773C273.383 55.2773 270.939 56.4483 269.208 58.7903C267.477 61.1324 266.611 64.4163 266.611 68.6422C266.611 72.868 267.477 76.152 269.208 78.494C270.939 80.8361 273.383 82.0071 276.539 82.0071C278.983 82.0071 280.994 81.2943 282.573 79.8687C284.151 78.4431 285.118 76.3302 285.475 73.5299L295.556 73.9881C294.996 78.8759 292.984 82.7708 289.522 85.6729C286.111 88.5241 281.783 89.9497 276.539 89.9497ZM298.927 48.2512H308.092L308.321 56.1174C309.136 53.4189 310.332 51.4333 311.91 50.1604C313.54 48.8876 315.602 48.2512 318.096 48.2512H321.839V56.652H318.02C314.863 56.652 312.521 57.3648 310.994 58.7903C309.466 60.165 308.703 62.4052 308.703 65.511V89.0332H298.927V48.2512ZM341.842 89.9497C337.82 89.9497 334.282 89.0841 331.227 87.353C328.223 85.5711 325.881 83.0763 324.201 79.8687C322.571 76.6611 321.757 72.919 321.757 68.6422C321.757 64.3654 322.571 60.6232 324.201 57.4157C325.881 54.2081 328.223 51.7388 331.227 50.0077C334.282 48.2257 337.82 47.3347 341.842 47.3347C345.814 47.3347 349.301 48.2257 352.305 50.0077C355.36 51.7388 357.702 54.2081 359.331 57.4157C361.011 60.6232 361.852 64.3654 361.852 68.6422C361.852 72.919 361.011 76.6611 359.331 79.8687C357.702 83.0763 355.36 85.5711 352.305 87.353C349.301 89.0841 345.814 89.9497 341.842 89.9497ZM341.842 82.0071C344.999 82.0071 347.443 80.8361 349.174 78.494C350.905 76.152 351.771 72.868 351.771 68.6422C351.771 64.4163 350.88 61.1324 349.098 58.7903C347.366 56.4483 344.948 55.2773 341.842 55.2773C338.686 55.2773 336.242 56.4483 334.511 58.7903C332.78 61.1324 331.914 64.4163 331.914 68.6422C331.914 72.868 332.78 76.152 334.511 78.494C336.242 80.8361 338.686 82.0071 341.842 82.0071ZM382.822 89.9497C376.967 89.9497 372.41 88.7023 369.151 86.2075C365.893 83.7127 364.111 80.3778 363.806 76.2029L373.81 75.7447C374.167 77.934 375.057 79.6141 376.483 80.7852C377.96 81.9053 380.073 82.4653 382.822 82.4653C387.71 82.4653 390.153 80.9379 390.153 77.8831C390.153 76.9157 389.924 76.1265 389.466 75.5156C389.008 74.9046 388.142 74.37 386.87 73.9118C385.597 73.4535 383.713 73.0208 381.218 72.6135C377.043 71.9007 373.759 71.0351 371.366 70.0169C369.024 68.9477 367.344 67.6494 366.326 66.1219C365.307 64.5436 364.798 62.558 364.798 60.165C364.798 56.2956 366.3 53.1898 369.304 50.8478C372.308 48.5057 376.559 47.3347 382.058 47.3347C387.353 47.3347 391.477 48.5821 394.43 51.0769C397.434 53.5717 399.242 56.9065 399.853 61.0815L389.924 61.5397C389.568 59.4522 388.702 57.823 387.328 56.652C385.953 55.43 384.171 54.8191 381.982 54.8191C379.691 54.8191 377.934 55.2773 376.712 56.1937C375.541 57.1102 374.956 58.3321 374.956 59.8595C374.956 61.4888 375.567 62.7107 376.789 63.5253C378.011 64.289 380.174 64.9255 383.28 65.4346C387.557 66.0965 390.917 66.962 393.361 68.0312C395.856 69.0495 397.638 70.3478 398.707 71.9261C399.776 73.4535 400.311 75.3883 400.311 77.7303C400.311 81.5998 398.707 84.6037 395.499 86.7421C392.343 88.8805 388.117 89.9497 382.822 89.9497ZM422.285 89.9497C418.263 89.9497 414.725 89.0841 411.67 87.353C408.666 85.5711 406.324 83.0763 404.644 79.8687C403.014 76.6611 402.2 72.919 402.2 68.6422C402.2 64.4163 403.014 60.6996 404.644 57.492C406.324 54.2335 408.666 51.7388 411.67 50.0077C414.725 48.2257 418.263 47.3347 422.285 47.3347C427.529 47.3347 431.857 48.7094 435.268 51.4587C438.68 54.1572 440.691 57.8993 441.302 62.6853L431.221 63.2199C430.864 60.6742 429.871 58.714 428.242 57.3393C426.664 55.9646 424.678 55.2773 422.285 55.2773C419.129 55.2773 416.685 56.4483 414.954 58.7903C413.223 61.1324 412.357 64.4163 412.357 68.6422C412.357 72.868 413.223 76.152 414.954 78.494C416.685 80.8361 419.129 82.0071 422.285 82.0071C424.729 82.0071 426.74 81.2943 428.319 79.8687C429.897 78.4431 430.864 76.3302 431.221 73.5299L441.302 73.9881C440.742 78.8759 438.731 82.7708 435.268 85.6729C431.857 88.5241 427.529 89.9497 422.285 89.9497ZM462.619 89.9497C458.596 89.9497 455.058 89.0841 452.003 87.353C448.999 85.5711 446.657 83.0763 444.977 79.8687C443.348 76.6611 442.533 72.919 442.533 68.6422C442.533 64.3654 443.348 60.6232 444.977 57.4157C446.657 54.2081 448.999 51.7388 452.003 50.0077C455.058 48.2257 458.596 47.3347 462.619 47.3347C466.59 47.3347 470.078 48.2257 473.081 50.0077C476.136 51.7388 478.478 54.2081 480.108 57.4157C481.788 60.6232 482.628 64.3654 482.628 68.6422C482.628 72.919 481.788 76.6611 480.108 79.8687C478.478 83.0763 476.136 85.5711 473.081 87.353C470.078 89.0841 466.59 89.9497 462.619 89.9497ZM462.619 82.0071C465.775 82.0071 468.219 80.8361 469.95 78.494C471.681 76.152 472.547 72.868 472.547 68.6422C472.547 64.4163 471.656 61.1324 469.874 58.7903C468.143 56.4483 465.724 55.2773 462.619 55.2773C459.462 55.2773 457.018 56.4483 455.287 58.7903C453.556 61.1324 452.69 64.4163 452.69 68.6422C452.69 72.868 453.556 76.152 455.287 78.494C457.018 80.8361 459.462 82.0071 462.619 82.0071ZM486.722 48.2512H496.116L496.268 54.2845C497.439 52.0443 499.094 50.3386 501.232 49.1676C503.371 47.9457 505.789 47.3347 508.488 47.3347C512.204 47.3347 515.361 48.2766 517.958 50.1604C520.605 52.0442 522.565 54.5899 523.838 57.7975C525.162 61.0051 525.824 64.62 525.824 68.6422C525.824 72.6644 525.162 76.2793 523.838 79.4868C522.515 82.6944 520.554 85.2401 517.958 87.1239C515.361 89.0077 512.179 89.9497 508.411 89.9497C505.815 89.9497 503.447 89.3641 501.309 88.1931C499.221 87.0221 497.618 85.4438 496.497 83.4581V100.489H486.722V48.2512ZM506.12 82.0071C509.124 82.0071 511.466 80.8361 513.146 78.494C514.827 76.1011 515.667 72.8171 515.667 68.6422C515.667 64.4672 514.827 61.2088 513.146 58.8667C511.466 56.4738 509.124 55.2773 506.12 55.2773C503.065 55.2773 500.698 56.4228 499.018 58.714C497.338 60.9542 496.497 64.2636 496.497 68.6422C496.497 73.0208 497.338 76.3556 499.018 78.6468C500.698 80.887 503.065 82.0071 506.12 82.0071ZM547.758 89.9497C543.736 89.9497 540.198 89.0841 537.143 87.353C534.139 85.5711 531.822 83.0763 530.193 79.8687C528.564 76.6611 527.749 72.919 527.749 68.6422C527.749 64.4163 528.564 60.6996 530.193 57.492C531.822 54.2335 534.114 51.7388 537.067 50.0077C540.07 48.2257 543.558 47.3347 547.529 47.3347C551.399 47.3347 554.785 48.2003 557.687 49.9313C560.64 51.6624 562.905 54.1826 564.484 57.492C566.113 60.7505 566.928 64.6454 566.928 69.1768V71.3915H537.907C538.11 74.9046 539.078 77.5776 540.809 79.4105C542.54 81.2434 544.882 82.1598 547.835 82.1598C549.973 82.1598 551.781 81.6761 553.257 80.7088C554.734 79.6905 555.752 78.2904 556.312 76.5084L566.317 77.1193C565.196 81.0906 562.982 84.2218 559.672 86.513C556.414 88.8041 552.443 89.9497 547.758 89.9497ZM556.77 64.8236C556.567 61.5652 555.65 59.1213 554.021 57.492C552.392 55.8628 550.228 55.0482 547.529 55.0482C544.882 55.0482 542.693 55.8882 540.961 57.5684C539.281 59.2486 538.263 61.667 537.907 64.8236H556.77Z" fill="#EAAA08"/>
</g>
<g opacity="0.5" filter="url(#filter2_f_6339_191104)">
<path d="M147.739 34.8099H161.103L176.072 76.8139L191.041 34.8099H204.406V89.0332H194.478V51.6115L180.807 88.9568H171.337L157.667 51.6115V89.0332H147.739V34.8099ZM224.059 89.9497C219.732 89.9497 216.269 88.9823 213.673 87.0476C211.127 85.0619 209.854 82.3126 209.854 78.7995C209.854 75.3374 210.924 72.6135 213.062 70.6278C215.251 68.5913 218.612 67.1402 223.143 66.2747L236.661 63.6017C236.661 60.7505 235.999 58.5867 234.675 57.1102C233.351 55.6337 231.416 54.8954 228.871 54.8954C224.238 54.8954 221.463 57.0084 220.546 61.2342L210.542 60.776C211.356 56.4992 213.342 53.1898 216.499 50.8478C219.655 48.5057 223.779 47.3347 228.871 47.3347C234.624 47.3347 238.977 48.8112 241.93 51.7642C244.934 54.6663 246.436 58.8413 246.436 64.289V79.105C246.436 80.1742 246.614 80.9124 246.971 81.3197C247.327 81.7271 247.912 81.9307 248.727 81.9307H250.025V89.0332C249.211 89.2369 248.04 89.3387 246.512 89.3387C244.119 89.3387 242.185 88.8295 240.708 87.8113C239.283 86.793 238.366 85.0874 237.959 82.6944C236.941 84.8837 235.184 86.6402 232.689 87.964C230.245 89.2878 227.369 89.9497 224.059 89.9497ZM226.045 82.8472C229.253 82.8472 231.824 81.9053 233.758 80.0214C235.693 78.1376 236.661 75.6428 236.661 72.5371V70.246L226.121 72.3844C223.983 72.7917 222.43 73.4535 221.463 74.37C220.495 75.2864 220.012 76.4575 220.012 77.8831C220.012 79.4614 220.521 80.6833 221.539 81.5489C222.608 82.4144 224.11 82.8472 226.045 82.8472ZM271.168 89.9497C267.146 89.9497 263.607 89.0841 260.553 87.353C257.549 85.5711 255.207 83.0763 253.527 79.8687C251.897 76.6611 251.083 72.919 251.083 68.6422C251.083 64.4163 251.897 60.6996 253.527 57.492C255.207 54.2335 257.549 51.7388 260.553 50.0077C263.607 48.2257 267.146 47.3347 271.168 47.3347C276.412 47.3347 280.74 48.7094 284.151 51.4587C287.562 54.1572 289.574 57.8993 290.185 62.6853L280.104 63.2199C279.747 60.6742 278.754 58.714 277.125 57.3393C275.547 55.9646 273.561 55.2773 271.168 55.2773C268.012 55.2773 265.568 56.4483 263.837 58.7903C262.106 61.1324 261.24 64.4163 261.24 68.6422C261.24 72.868 262.106 76.152 263.837 78.494C265.568 80.8361 268.012 82.0071 271.168 82.0071C273.612 82.0071 275.623 81.2943 277.201 79.8687C278.78 78.4431 279.747 76.3302 280.104 73.5299L290.185 73.9881C289.624 78.8759 287.613 82.7708 284.151 85.6729C280.74 88.5241 276.412 89.9497 271.168 89.9497ZM293.556 48.2512H302.721L302.95 56.1174C303.764 53.4189 304.961 51.4333 306.539 50.1604C308.168 48.8876 310.231 48.2512 312.725 48.2512H316.467V56.652H312.649C309.492 56.652 307.15 57.3648 305.623 58.7903C304.095 60.165 303.332 62.4052 303.332 65.511V89.0332H293.556V48.2512ZM336.471 89.9497C332.449 89.9497 328.911 89.0841 325.856 87.353C322.852 85.5711 320.51 83.0763 318.83 79.8687C317.2 76.6611 316.386 72.919 316.386 68.6422C316.386 64.3654 317.2 60.6232 318.83 57.4157C320.51 54.2081 322.852 51.7388 325.856 50.0077C328.911 48.2257 332.449 47.3347 336.471 47.3347C340.443 47.3347 343.93 48.2257 346.934 50.0077C349.989 51.7388 352.331 54.2081 353.96 57.4157C355.64 60.6232 356.48 64.3654 356.48 68.6422C356.48 72.919 355.64 76.6611 353.96 79.8687C352.331 83.0763 349.989 85.5711 346.934 87.353C343.93 89.0841 340.443 89.9497 336.471 89.9497ZM336.471 82.0071C339.628 82.0071 342.072 80.8361 343.803 78.494C345.534 76.152 346.399 72.868 346.399 68.6422C346.399 64.4163 345.508 61.1324 343.726 58.7903C341.995 56.4483 339.577 55.2773 336.471 55.2773C333.315 55.2773 330.871 56.4483 329.14 58.7903C327.409 61.1324 326.543 64.4163 326.543 68.6422C326.543 72.868 327.409 76.152 329.14 78.494C330.871 80.8361 333.315 82.0071 336.471 82.0071ZM377.451 89.9497C371.596 89.9497 367.039 88.7023 363.78 86.2075C360.522 83.7127 358.74 80.3778 358.434 76.2029L368.439 75.7447C368.795 77.934 369.686 79.6141 371.112 80.7852C372.588 81.9053 374.701 82.4653 377.451 82.4653C382.339 82.4653 384.782 80.9379 384.782 77.8831C384.782 76.9157 384.553 76.1265 384.095 75.5156C383.637 74.9046 382.771 74.37 381.498 73.9118C380.226 73.4535 378.342 73.0208 375.847 72.6135C371.672 71.9007 368.388 71.0351 365.995 70.0169C363.653 68.9477 361.973 67.6494 360.955 66.1219C359.936 64.5436 359.427 62.558 359.427 60.165C359.427 56.2956 360.929 53.1898 363.933 50.8478C366.937 48.5057 371.188 47.3347 376.687 47.3347C381.982 47.3347 386.106 48.5821 389.059 51.0769C392.063 53.5717 393.871 56.9065 394.481 61.0815L384.553 61.5397C384.197 59.4522 383.331 57.823 381.957 56.652C380.582 55.43 378.8 54.8191 376.611 54.8191C374.32 54.8191 372.563 55.2773 371.341 56.1937C370.17 57.1102 369.585 58.3321 369.585 59.8595C369.585 61.4888 370.196 62.7107 371.417 63.5253C372.639 64.289 374.803 64.9255 377.909 65.4346C382.186 66.0965 385.546 66.962 387.99 68.0312C390.485 69.0495 392.267 70.3478 393.336 71.9261C394.405 73.4535 394.94 75.3883 394.94 77.7303C394.94 81.5998 393.336 84.6037 390.128 86.7421C386.972 88.8805 382.746 89.9497 377.451 89.9497ZM416.914 89.9497C412.892 89.9497 409.354 89.0841 406.299 87.353C403.295 85.5711 400.953 83.0763 399.273 79.8687C397.643 76.6611 396.829 72.919 396.829 68.6422C396.829 64.4163 397.643 60.6996 399.273 57.492C400.953 54.2335 403.295 51.7388 406.299 50.0077C409.354 48.2257 412.892 47.3347 416.914 47.3347C422.158 47.3347 426.486 48.7094 429.897 51.4587C433.308 54.1572 435.32 57.8993 435.931 62.6853L425.85 63.2199C425.493 60.6742 424.5 58.714 422.871 57.3393C421.293 55.9646 419.307 55.2773 416.914 55.2773C413.758 55.2773 411.314 56.4483 409.583 58.7903C407.852 61.1324 406.986 64.4163 406.986 68.6422C406.986 72.868 407.852 76.152 409.583 78.494C411.314 80.8361 413.758 82.0071 416.914 82.0071C419.358 82.0071 421.369 81.2943 422.948 79.8687C424.526 78.4431 425.493 76.3302 425.85 73.5299L435.931 73.9881C435.371 78.8759 433.359 82.7708 429.897 85.6729C426.486 88.5241 422.158 89.9497 416.914 89.9497ZM457.248 89.9497C453.225 89.9497 449.687 89.0841 446.632 87.353C443.628 85.5711 441.286 83.0763 439.606 79.8687C437.977 76.6611 437.162 72.919 437.162 68.6422C437.162 64.3654 437.977 60.6232 439.606 57.4157C441.286 54.2081 443.628 51.7388 446.632 50.0077C449.687 48.2257 453.225 47.3347 457.248 47.3347C461.219 47.3347 464.706 48.2257 467.71 50.0077C470.765 51.7388 473.107 54.2081 474.737 57.4157C476.417 60.6232 477.257 64.3654 477.257 68.6422C477.257 72.919 476.417 76.6611 474.737 79.8687C473.107 83.0763 470.765 85.5711 467.71 87.353C464.706 89.0841 461.219 89.9497 457.248 89.9497ZM457.248 82.0071C460.404 82.0071 462.848 80.8361 464.579 78.494C466.31 76.152 467.176 72.868 467.176 68.6422C467.176 64.4163 466.285 61.1324 464.503 58.7903C462.772 56.4483 460.353 55.2773 457.248 55.2773C454.091 55.2773 451.647 56.4483 449.916 58.7903C448.185 61.1324 447.319 64.4163 447.319 68.6422C447.319 72.868 448.185 76.152 449.916 78.494C451.647 80.8361 454.091 82.0071 457.248 82.0071ZM481.351 48.2512H490.745L490.897 54.2845C492.068 52.0443 493.723 50.3386 495.861 49.1676C498 47.9457 500.418 47.3347 503.117 47.3347C506.833 47.3347 509.99 48.2766 512.587 50.1604C515.234 52.0442 517.194 54.5899 518.467 57.7975C519.791 61.0051 520.453 64.62 520.453 68.6422C520.453 72.6644 519.791 76.2793 518.467 79.4868C517.143 82.6944 515.183 85.2401 512.587 87.1239C509.99 89.0077 506.808 89.9497 503.04 89.9497C500.444 89.9497 498.076 89.3641 495.938 88.1931C493.85 87.0221 492.247 85.4438 491.126 83.4581V100.489H481.351V48.2512ZM500.749 82.0071C503.753 82.0071 506.095 80.8361 507.775 78.494C509.455 76.1011 510.295 72.8171 510.295 68.6422C510.295 64.4672 509.455 61.2088 507.775 58.8667C506.095 56.4738 503.753 55.2773 500.749 55.2773C497.694 55.2773 495.327 56.4228 493.647 58.714C491.966 60.9542 491.126 64.2636 491.126 68.6422C491.126 73.0208 491.966 76.3556 493.647 78.6468C495.327 80.887 497.694 82.0071 500.749 82.0071ZM542.387 89.9497C538.365 89.9497 534.827 89.0841 531.772 87.353C528.768 85.5711 526.451 83.0763 524.822 79.8687C523.193 76.6611 522.378 72.919 522.378 68.6422C522.378 64.4163 523.193 60.6996 524.822 57.492C526.451 54.2335 528.742 51.7388 531.695 50.0077C534.699 48.2257 538.187 47.3347 542.158 47.3347C546.028 47.3347 549.413 48.2003 552.316 49.9313C555.269 51.6624 557.534 54.1826 559.113 57.492C560.742 60.7505 561.556 64.6454 561.556 69.1768V71.3915H532.536C532.739 74.9046 533.707 77.5776 535.438 79.4105C537.169 81.2434 539.511 82.1598 542.464 82.1598C544.602 82.1598 546.41 81.6761 547.886 80.7088C549.363 79.6905 550.381 78.2904 550.941 76.5084L560.945 77.1193C559.825 81.0906 557.611 84.2218 554.301 86.513C551.043 88.8041 547.071 89.9497 542.387 89.9497ZM551.399 64.8236C551.195 61.5652 550.279 59.1213 548.65 57.492C547.021 55.8628 544.857 55.0482 542.158 55.0482C539.511 55.0482 537.321 55.8882 535.59 57.5684C533.91 59.2486 532.892 61.667 532.536 64.8236H551.399Z" fill="#06AED4"/>
</g>
<g opacity="0.45" filter="url(#filter3_f_6339_191104)">
<path d="M149.739 34.8099H163.103L178.072 76.8139L193.041 34.8099H206.406V89.0332H196.478V51.6115L182.807 88.9568H173.337L159.667 51.6115V89.0332H149.739V34.8099ZM226.059 89.9497C221.732 89.9497 218.269 88.9823 215.673 87.0476C213.127 85.0619 211.854 82.3126 211.854 78.7995C211.854 75.3374 212.924 72.6135 215.062 70.6278C217.251 68.5913 220.612 67.1402 225.143 66.2747L238.661 63.6017C238.661 60.7505 237.999 58.5867 236.675 57.1102C235.351 55.6337 233.416 54.8954 230.871 54.8954C226.238 54.8954 223.463 57.0084 222.546 61.2342L212.542 60.776C213.356 56.4992 215.342 53.1898 218.499 50.8478C221.655 48.5057 225.779 47.3347 230.871 47.3347C236.624 47.3347 240.977 48.8112 243.93 51.7642C246.934 54.6663 248.436 58.8413 248.436 64.289V79.105C248.436 80.1742 248.614 80.9124 248.971 81.3197C249.327 81.7271 249.912 81.9307 250.727 81.9307H252.025V89.0332C251.211 89.2369 250.04 89.3387 248.512 89.3387C246.119 89.3387 244.185 88.8295 242.708 87.8113C241.283 86.793 240.366 85.0874 239.959 82.6944C238.941 84.8837 237.184 86.6402 234.689 87.964C232.245 89.2878 229.369 89.9497 226.059 89.9497ZM228.045 82.8472C231.253 82.8472 233.824 81.9053 235.758 80.0214C237.693 78.1376 238.661 75.6428 238.661 72.5371V70.246L228.121 72.3844C225.983 72.7917 224.43 73.4535 223.463 74.37C222.495 75.2864 222.012 76.4575 222.012 77.8831C222.012 79.4614 222.521 80.6833 223.539 81.5489C224.608 82.4144 226.11 82.8472 228.045 82.8472ZM273.168 89.9497C269.146 89.9497 265.607 89.0841 262.553 87.353C259.549 85.5711 257.207 83.0763 255.527 79.8687C253.897 76.6611 253.083 72.919 253.083 68.6422C253.083 64.4163 253.897 60.6996 255.527 57.492C257.207 54.2335 259.549 51.7388 262.553 50.0077C265.607 48.2257 269.146 47.3347 273.168 47.3347C278.412 47.3347 282.74 48.7094 286.151 51.4587C289.562 54.1572 291.574 57.8993 292.185 62.6853L282.104 63.2199C281.747 60.6742 280.754 58.714 279.125 57.3393C277.547 55.9646 275.561 55.2773 273.168 55.2773C270.012 55.2773 267.568 56.4483 265.837 58.7903C264.106 61.1324 263.24 64.4163 263.24 68.6422C263.24 72.868 264.106 76.152 265.837 78.494C267.568 80.8361 270.012 82.0071 273.168 82.0071C275.612 82.0071 277.623 81.2943 279.201 79.8687C280.78 78.4431 281.747 76.3302 282.104 73.5299L292.185 73.9881C291.624 78.8759 289.613 82.7708 286.151 85.6729C282.74 88.5241 278.412 89.9497 273.168 89.9497ZM295.556 48.2512H304.721L304.95 56.1174C305.764 53.4189 306.961 51.4333 308.539 50.1604C310.168 48.8876 312.231 48.2512 314.725 48.2512H318.467V56.652H314.649C311.492 56.652 309.15 57.3648 307.623 58.7903C306.095 60.165 305.332 62.4052 305.332 65.511V89.0332H295.556V48.2512ZM338.471 89.9497C334.449 89.9497 330.911 89.0841 327.856 87.353C324.852 85.5711 322.51 83.0763 320.83 79.8687C319.2 76.6611 318.386 72.919 318.386 68.6422C318.386 64.3654 319.2 60.6232 320.83 57.4157C322.51 54.2081 324.852 51.7388 327.856 50.0077C330.911 48.2257 334.449 47.3347 338.471 47.3347C342.443 47.3347 345.93 48.2257 348.934 50.0077C351.989 51.7388 354.331 54.2081 355.96 57.4157C357.64 60.6232 358.48 64.3654 358.48 68.6422C358.48 72.919 357.64 76.6611 355.96 79.8687C354.331 83.0763 351.989 85.5711 348.934 87.353C345.93 89.0841 342.443 89.9497 338.471 89.9497ZM338.471 82.0071C341.628 82.0071 344.072 80.8361 345.803 78.494C347.534 76.152 348.399 72.868 348.399 68.6422C348.399 64.4163 347.508 61.1324 345.726 58.7903C343.995 56.4483 341.577 55.2773 338.471 55.2773C335.315 55.2773 332.871 56.4483 331.14 58.7903C329.409 61.1324 328.543 64.4163 328.543 68.6422C328.543 72.868 329.409 76.152 331.14 78.494C332.871 80.8361 335.315 82.0071 338.471 82.0071ZM379.451 89.9497C373.596 89.9497 369.039 88.7023 365.78 86.2075C362.522 83.7127 360.74 80.3778 360.434 76.2029L370.439 75.7447C370.795 77.934 371.686 79.6141 373.112 80.7852C374.588 81.9053 376.701 82.4653 379.451 82.4653C384.339 82.4653 386.782 80.9379 386.782 77.8831C386.782 76.9157 386.553 76.1265 386.095 75.5156C385.637 74.9046 384.771 74.37 383.498 73.9118C382.226 73.4535 380.342 73.0208 377.847 72.6135C373.672 71.9007 370.388 71.0351 367.995 70.0169C365.653 68.9477 363.973 67.6494 362.955 66.1219C361.936 64.5436 361.427 62.558 361.427 60.165C361.427 56.2956 362.929 53.1898 365.933 50.8478C368.937 48.5057 373.188 47.3347 378.687 47.3347C383.982 47.3347 388.106 48.5821 391.059 51.0769C394.063 53.5717 395.871 56.9065 396.481 61.0815L386.553 61.5397C386.197 59.4522 385.331 57.823 383.957 56.652C382.582 55.43 380.8 54.8191 378.611 54.8191C376.32 54.8191 374.563 55.2773 373.341 56.1937C372.17 57.1102 371.585 58.3321 371.585 59.8595C371.585 61.4888 372.196 62.7107 373.417 63.5253C374.639 64.289 376.803 64.9255 379.909 65.4346C384.186 66.0965 387.546 66.962 389.99 68.0312C392.485 69.0495 394.267 70.3478 395.336 71.9261C396.405 73.4535 396.94 75.3883 396.94 77.7303C396.94 81.5998 395.336 84.6037 392.128 86.7421C388.972 88.8805 384.746 89.9497 379.451 89.9497ZM418.914 89.9497C414.892 89.9497 411.354 89.0841 408.299 87.353C405.295 85.5711 402.953 83.0763 401.273 79.8687C399.643 76.6611 398.829 72.919 398.829 68.6422C398.829 64.4163 399.643 60.6996 401.273 57.492C402.953 54.2335 405.295 51.7388 408.299 50.0077C411.354 48.2257 414.892 47.3347 418.914 47.3347C424.158 47.3347 428.486 48.7094 431.897 51.4587C435.308 54.1572 437.32 57.8993 437.931 62.6853L427.85 63.2199C427.493 60.6742 426.5 58.714 424.871 57.3393C423.293 55.9646 421.307 55.2773 418.914 55.2773C415.758 55.2773 413.314 56.4483 411.583 58.7903C409.852 61.1324 408.986 64.4163 408.986 68.6422C408.986 72.868 409.852 76.152 411.583 78.494C413.314 80.8361 415.758 82.0071 418.914 82.0071C421.358 82.0071 423.369 81.2943 424.948 79.8687C426.526 78.4431 427.493 76.3302 427.85 73.5299L437.931 73.9881C437.371 78.8759 435.359 82.7708 431.897 85.6729C428.486 88.5241 424.158 89.9497 418.914 89.9497ZM459.248 89.9497C455.225 89.9497 451.687 89.0841 448.632 87.353C445.628 85.5711 443.286 83.0763 441.606 79.8687C439.977 76.6611 439.162 72.919 439.162 68.6422C439.162 64.3654 439.977 60.6232 441.606 57.4157C443.286 54.2081 445.628 51.7388 448.632 50.0077C451.687 48.2257 455.225 47.3347 459.248 47.3347C463.219 47.3347 466.706 48.2257 469.71 50.0077C472.765 51.7388 475.107 54.2081 476.737 57.4157C478.417 60.6232 479.257 64.3654 479.257 68.6422C479.257 72.919 478.417 76.6611 476.737 79.8687C475.107 83.0763 472.765 85.5711 469.71 87.353C466.706 89.0841 463.219 89.9497 459.248 89.9497ZM459.248 82.0071C462.404 82.0071 464.848 80.8361 466.579 78.494C468.31 76.152 469.176 72.868 469.176 68.6422C469.176 64.4163 468.285 61.1324 466.503 58.7903C464.772 56.4483 462.353 55.2773 459.248 55.2773C456.091 55.2773 453.647 56.4483 451.916 58.7903C450.185 61.1324 449.319 64.4163 449.319 68.6422C449.319 72.868 450.185 76.152 451.916 78.494C453.647 80.8361 456.091 82.0071 459.248 82.0071ZM483.351 48.2512H492.745L492.897 54.2845C494.068 52.0443 495.723 50.3386 497.861 49.1676C500 47.9457 502.418 47.3347 505.117 47.3347C508.833 47.3347 511.99 48.2766 514.587 50.1604C517.234 52.0442 519.194 54.5899 520.467 57.7975C521.791 61.0051 522.453 64.62 522.453 68.6422C522.453 72.6644 521.791 76.2793 520.467 79.4868C519.143 82.6944 517.183 85.2401 514.587 87.1239C511.99 89.0077 508.808 89.9497 505.04 89.9497C502.444 89.9497 500.076 89.3641 497.938 88.1931C495.85 87.0221 494.247 85.4438 493.126 83.4581V100.489H483.351V48.2512ZM502.749 82.0071C505.753 82.0071 508.095 80.8361 509.775 78.494C511.455 76.1011 512.295 72.8171 512.295 68.6422C512.295 64.4672 511.455 61.2088 509.775 58.8667C508.095 56.4738 505.753 55.2773 502.749 55.2773C499.694 55.2773 497.327 56.4228 495.647 58.714C493.966 60.9542 493.126 64.2636 493.126 68.6422C493.126 73.0208 493.966 76.3556 495.647 78.6468C497.327 80.887 499.694 82.0071 502.749 82.0071ZM544.387 89.9497C540.365 89.9497 536.827 89.0841 533.772 87.353C530.768 85.5711 528.451 83.0763 526.822 79.8687C525.193 76.6611 524.378 72.919 524.378 68.6422C524.378 64.4163 525.193 60.6996 526.822 57.492C528.451 54.2335 530.742 51.7388 533.695 50.0077C536.699 48.2257 540.187 47.3347 544.158 47.3347C548.028 47.3347 551.413 48.2003 554.316 49.9313C557.269 51.6624 559.534 54.1826 561.113 57.492C562.742 60.7505 563.556 64.6454 563.556 69.1768V71.3915H534.536C534.739 74.9046 535.707 77.5776 537.438 79.4105C539.169 81.2434 541.511 82.1598 544.464 82.1598C546.602 82.1598 548.41 81.6761 549.886 80.7088C551.363 79.6905 552.381 78.2904 552.941 76.5084L562.945 77.1193C561.825 81.0906 559.611 84.2218 556.301 86.513C553.043 88.8041 549.071 89.9497 544.387 89.9497ZM553.399 64.8236C553.195 61.5652 552.279 59.1213 550.65 57.492C549.021 55.8628 546.857 55.0482 544.158 55.0482C541.511 55.0482 539.321 55.8882 537.59 57.5684C535.91 59.2486 534.892 61.667 534.536 64.8236H553.399Z" fill="#5FE9D0"/>
</g>
</g>
<path d="M151.481 34.8099H164.846L179.814 76.8139L194.783 34.8099H208.148V89.0332H198.22V51.6115L184.549 88.9568H175.079L161.409 51.6115V89.0332H151.481V34.8099ZM227.802 89.9497C223.474 89.9497 220.012 88.9823 217.415 87.0476C214.869 85.0619 213.597 82.3126 213.597 78.7995C213.597 75.3374 214.666 72.6135 216.804 70.6278C218.993 68.5913 222.354 67.1402 226.885 66.2747L240.403 63.6017C240.403 60.7505 239.741 58.5867 238.417 57.1102C237.093 55.6337 235.159 54.8954 232.613 54.8954C227.98 54.8954 225.205 57.0084 224.288 61.2342L214.284 60.776C215.098 56.4992 217.084 53.1898 220.241 50.8478C223.397 48.5057 227.521 47.3347 232.613 47.3347C238.366 47.3347 242.719 48.8112 245.672 51.7642C248.676 54.6663 250.178 58.8413 250.178 64.289V79.105C250.178 80.1742 250.356 80.9124 250.713 81.3197C251.069 81.7271 251.655 81.9307 252.469 81.9307H253.768V89.0332C252.953 89.2369 251.782 89.3387 250.255 89.3387C247.862 89.3387 245.927 88.8295 244.45 87.8113C243.025 86.793 242.108 85.0874 241.701 82.6944C240.683 84.8837 238.926 86.6402 236.431 87.964C233.988 89.2878 231.111 89.9497 227.802 89.9497ZM229.787 82.8472C232.995 82.8472 235.566 81.9053 237.501 80.0214C239.435 78.1376 240.403 75.6428 240.403 72.5371V70.246L229.864 72.3844C227.725 72.7917 226.172 73.4535 225.205 74.37C224.238 75.2864 223.754 76.4575 223.754 77.8831C223.754 79.4614 224.263 80.6833 225.281 81.5489C226.35 82.4144 227.852 82.8472 229.787 82.8472ZM274.91 89.9497C270.888 89.9497 267.35 89.0841 264.295 87.353C261.291 85.5711 258.949 83.0763 257.269 79.8687C255.639 76.6611 254.825 72.919 254.825 68.6422C254.825 64.4163 255.639 60.6996 257.269 57.492C258.949 54.2335 261.291 51.7388 264.295 50.0077C267.35 48.2257 270.888 47.3347 274.91 47.3347C280.155 47.3347 284.482 48.7094 287.893 51.4587C291.305 54.1572 293.316 57.8993 293.927 62.6853L283.846 63.2199C283.489 60.6742 282.497 58.714 280.867 57.3393C279.289 55.9646 277.303 55.2773 274.91 55.2773C271.754 55.2773 269.31 56.4483 267.579 58.7903C265.848 61.1324 264.982 64.4163 264.982 68.6422C264.982 72.868 265.848 76.152 267.579 78.494C269.31 80.8361 271.754 82.0071 274.91 82.0071C277.354 82.0071 279.365 81.2943 280.944 79.8687C282.522 78.4431 283.489 76.3302 283.846 73.5299L293.927 73.9881C293.367 78.8759 291.356 82.7708 287.893 85.6729C284.482 88.5241 280.155 89.9497 274.91 89.9497ZM297.298 48.2512H306.463L306.692 56.1174C307.507 53.4189 308.703 51.4333 310.281 50.1604C311.911 48.8876 313.973 48.2512 316.467 48.2512H320.21V56.652H316.391C313.234 56.652 310.892 57.3648 309.365 58.7903C307.838 60.165 307.074 62.4052 307.074 65.511V89.0332H297.298V48.2512ZM340.213 89.9497C336.191 89.9497 332.653 89.0841 329.598 87.353C326.594 85.5711 324.252 83.0763 322.572 79.8687C320.943 76.6611 320.128 72.919 320.128 68.6422C320.128 64.3654 320.943 60.6232 322.572 57.4157C324.252 54.2081 326.594 51.7388 329.598 50.0077C332.653 48.2257 336.191 47.3347 340.213 47.3347C344.185 47.3347 347.672 48.2257 350.676 50.0077C353.731 51.7388 356.073 54.2081 357.702 57.4157C359.383 60.6232 360.223 64.3654 360.223 68.6422C360.223 72.919 359.383 76.6611 357.702 79.8687C356.073 83.0763 353.731 85.5711 350.676 87.353C347.672 89.0841 344.185 89.9497 340.213 89.9497ZM340.213 82.0071C343.37 82.0071 345.814 80.8361 347.545 78.494C349.276 76.152 350.142 72.868 350.142 68.6422C350.142 64.4163 349.251 61.1324 347.469 58.7903C345.738 56.4483 343.319 55.2773 340.213 55.2773C337.057 55.2773 334.613 56.4483 332.882 58.7903C331.151 61.1324 330.285 64.4163 330.285 68.6422C330.285 72.868 331.151 76.152 332.882 78.494C334.613 80.8361 337.057 82.0071 340.213 82.0071ZM381.193 89.9497C375.338 89.9497 370.781 88.7023 367.523 86.2075C364.264 83.7127 362.482 80.3778 362.177 76.2029L372.181 75.7447C372.538 77.934 373.429 79.6141 374.854 80.7852C376.331 81.9053 378.444 82.4653 381.193 82.4653C386.081 82.4653 388.525 80.9379 388.525 77.8831C388.525 76.9157 388.295 76.1265 387.837 75.5156C387.379 74.9046 386.513 74.37 385.241 73.9118C383.968 73.4535 382.084 73.0208 379.589 72.6135C375.414 71.9007 372.13 71.0351 369.737 70.0169C367.395 68.9477 365.715 67.6494 364.697 66.1219C363.679 64.5436 363.169 62.558 363.169 60.165C363.169 56.2956 364.671 53.1898 367.675 50.8478C370.679 48.5057 374.931 47.3347 380.429 47.3347C385.724 47.3347 389.848 48.5821 392.801 51.0769C395.805 53.5717 397.613 56.9065 398.224 61.0815L388.295 61.5397C387.939 59.4522 387.074 57.823 385.699 56.652C384.324 55.43 382.542 54.8191 380.353 54.8191C378.062 54.8191 376.305 55.2773 375.083 56.1937C373.912 57.1102 373.327 58.3321 373.327 59.8595C373.327 61.4888 373.938 62.7107 375.16 63.5253C376.382 64.289 378.545 64.9255 381.651 65.4346C385.928 66.0965 389.288 66.962 391.732 68.0312C394.227 69.0495 396.009 70.3478 397.078 71.9261C398.147 73.4535 398.682 75.3883 398.682 77.7303C398.682 81.5998 397.078 84.6037 393.871 86.7421C390.714 88.8805 386.488 89.9497 381.193 89.9497ZM420.656 89.9497C416.634 89.9497 413.096 89.0841 410.041 87.353C407.037 85.5711 404.695 83.0763 403.015 79.8687C401.385 76.6611 400.571 72.919 400.571 68.6422C400.571 64.4163 401.385 60.6996 403.015 57.492C404.695 54.2335 407.037 51.7388 410.041 50.0077C413.096 48.2257 416.634 47.3347 420.656 47.3347C425.901 47.3347 430.228 48.7094 433.639 51.4587C437.051 54.1572 439.062 57.8993 439.673 62.6853L429.592 63.2199C429.235 60.6742 428.243 58.714 426.613 57.3393C425.035 55.9646 423.049 55.2773 420.656 55.2773C417.5 55.2773 415.056 56.4483 413.325 58.7903C411.594 61.1324 410.728 64.4163 410.728 68.6422C410.728 72.868 411.594 76.152 413.325 78.494C415.056 80.8361 417.5 82.0071 420.656 82.0071C423.1 82.0071 425.111 81.2943 426.69 79.8687C428.268 78.4431 429.235 76.3302 429.592 73.5299L439.673 73.9881C439.113 78.8759 437.102 82.7708 433.639 85.6729C430.228 88.5241 425.901 89.9497 420.656 89.9497ZM460.99 89.9497C456.968 89.9497 453.429 89.0841 450.374 87.353C447.37 85.5711 445.028 83.0763 443.348 79.8687C441.719 76.6611 440.904 72.919 440.904 68.6422C440.904 64.3654 441.719 60.6232 443.348 57.4157C445.028 54.2081 447.37 51.7388 450.374 50.0077C453.429 48.2257 456.968 47.3347 460.99 47.3347C464.961 47.3347 468.449 48.2257 471.453 50.0077C474.507 51.7388 476.849 54.2081 478.479 57.4157C480.159 60.6232 480.999 64.3654 480.999 68.6422C480.999 72.919 480.159 76.6611 478.479 79.8687C476.849 83.0763 474.507 85.5711 471.453 87.353C468.449 89.0841 464.961 89.9497 460.99 89.9497ZM460.99 82.0071C464.146 82.0071 466.59 80.8361 468.321 78.494C470.052 76.152 470.918 72.868 470.918 68.6422C470.918 64.4163 470.027 61.1324 468.245 58.7903C466.514 56.4483 464.096 55.2773 460.99 55.2773C457.833 55.2773 455.389 56.4483 453.658 58.7903C451.927 61.1324 451.062 64.4163 451.062 68.6422C451.062 72.868 451.927 76.152 453.658 78.494C455.389 80.8361 457.833 82.0071 460.99 82.0071ZM485.093 48.2512H494.487L494.639 54.2845C495.81 52.0443 497.465 50.3386 499.604 49.1676C501.742 47.9457 504.16 47.3347 506.859 47.3347C510.576 47.3347 513.732 48.2766 516.329 50.1604C518.976 52.0442 520.937 54.5899 522.209 57.7975C523.533 61.0051 524.195 64.62 524.195 68.6422C524.195 72.6644 523.533 76.2793 522.209 79.4868C520.886 82.6944 518.925 85.2401 516.329 87.1239C513.732 89.0077 510.55 89.9497 506.782 89.9497C504.186 89.9497 501.818 89.3641 499.68 88.1931C497.592 87.0221 495.989 85.4438 494.869 83.4581V100.489H485.093V48.2512ZM504.491 82.0071C507.495 82.0071 509.837 80.8361 511.517 78.494C513.198 76.1011 514.038 72.8171 514.038 68.6422C514.038 64.4672 513.198 61.2088 511.517 58.8667C509.837 56.4738 507.495 55.2773 504.491 55.2773C501.436 55.2773 499.069 56.4228 497.389 58.714C495.709 60.9542 494.869 64.2636 494.869 68.6422C494.869 73.0208 495.709 76.3556 497.389 78.6468C499.069 80.887 501.436 82.0071 504.491 82.0071ZM546.13 89.9497C542.107 89.9497 538.569 89.0841 535.514 87.353C532.51 85.5711 530.194 83.0763 528.564 79.8687C526.935 76.6611 526.12 72.919 526.12 68.6422C526.12 64.4163 526.935 60.6996 528.564 57.492C530.194 54.2335 532.485 51.7388 535.438 50.0077C538.442 48.2257 541.929 47.3347 545.9 47.3347C549.77 47.3347 553.156 48.2003 556.058 49.9313C559.011 51.6624 561.276 54.1826 562.855 57.492C564.484 60.7505 565.299 64.6454 565.299 69.1768V71.3915H536.278C536.481 74.9046 537.449 77.5776 539.18 79.4105C540.911 81.2434 543.253 82.1598 546.206 82.1598C548.344 82.1598 550.152 81.6761 551.628 80.7088C553.105 79.6905 554.123 78.2904 554.683 76.5084L564.688 77.1193C563.568 81.0906 561.353 84.2218 558.043 86.513C554.785 88.8041 550.814 89.9497 546.13 89.9497ZM555.141 64.8236C554.938 61.5652 554.021 59.1213 552.392 57.492C550.763 55.8628 548.599 55.0482 545.9 55.0482C543.253 55.0482 541.064 55.8882 539.333 57.5684C537.652 59.2486 536.634 61.667 536.278 64.8236H555.141Z" fill="black"/>
<path fill-rule="evenodd" clip-rule="evenodd" d="M102.431 102.426C125.863 78.995 125.863 41.005 102.431 17.5736C78.9982 -5.85786 41.0068 -5.85786 17.5743 17.5736C-5.85811 41.005 -5.85811 78.995 17.5743 102.426C41.0067 125.858 78.9982 125.858 102.431 102.426ZM48.442 71.5383C44.6454 67.7417 39.5109 64.4962 34.4696 61.3095C20.3393 52.3776 6.94077 43.9082 25.7842 25.0648C44.8744 5.9746 75.8259 5.97461 94.9161 25.0649C114.006 44.1551 114.006 75.1064 94.9161 94.1966C76.0726 113.04 67.603 99.6412 58.671 85.5108C55.4842 80.4694 52.2386 75.3349 48.442 71.5383ZM43.6009 56.8427C47.005 59.0241 51.0208 61.5975 54.7071 65.2837C58.3933 68.97 60.9667 72.9858 63.1482 76.39C68.0242 83.9992 70.9422 88.5528 79.9542 79.5409C90.8629 68.6322 90.8629 50.9457 79.9542 40.037C69.0455 29.1283 51.3589 29.1283 40.4502 40.037C31.4383 49.0489 35.9918 51.9668 43.6009 56.8427Z" fill="black"/>
<defs>
<filter id="filter0_f_6339_191104" x="152.109" y="31.8096" width="419.818" height="71.6797" filterUnits="userSpaceOnUse" color-interpolation-filters="sRGB">
<feFlood flood-opacity="0" result="BackgroundImageFix"/>
<feBlend mode="normal" in="SourceGraphic" in2="BackgroundImageFix" result="shape"/>
<feGaussianBlur stdDeviation="1.5" result="effect1_foregroundBlur_6339_191104"/>
</filter>
<filter id="filter1_f_6339_191104" x="150.109" y="31.8096" width="419.818" height="71.6797" filterUnits="userSpaceOnUse" color-interpolation-filters="sRGB">
<feFlood flood-opacity="0" result="BackgroundImageFix"/>
<feBlend mode="normal" in="SourceGraphic" in2="BackgroundImageFix" result="shape"/>
<feGaussianBlur stdDeviation="1.5" result="effect1_foregroundBlur_6339_191104"/>
</filter>
<filter id="filter2_f_6339_191104" x="144.738" y="31.8096" width="419.818" height="71.6797" filterUnits="userSpaceOnUse" color-interpolation-filters="sRGB">
<feFlood flood-opacity="0" result="BackgroundImageFix"/>
<feBlend mode="normal" in="SourceGraphic" in2="BackgroundImageFix" result="shape"/>
<feGaussianBlur stdDeviation="1.5" result="effect1_foregroundBlur_6339_191104"/>
</filter>
<filter id="filter3_f_6339_191104" x="146.738" y="31.8096" width="419.818" height="71.6797" filterUnits="userSpaceOnUse" color-interpolation-filters="sRGB">
<feFlood flood-opacity="0" result="BackgroundImageFix"/>
<feBlend mode="normal" in="SourceGraphic" in2="BackgroundImageFix" result="shape"/>
<feGaussianBlur stdDeviation="1.5" result="effect1_foregroundBlur_6339_191104"/>
</filter>
</defs>
</svg>
